<?xml version="1.0" encoding="UTF-8" standalone="no"?>
<!-- Created with Inkscape (http://www.inkscape.org/) -->
<svg id="svg8136" xmlns:inkscape="http://www.inkscape.org/namespaces/inkscape" xmlns:rdf="http://www.w3.org/1999/02/22-rdf-syntax-ns#" xmlns="http://www.w3.org/2000/svg" sodipodi:docname="conditional-update-large-resource.svg" viewBox="0 0 2823.5 1272.6" version="1.1" xmlns:cc="http://creativecommons.org/ns#" xmlns:dc="http://purl.org/dc/elements/1.1/" inkscape:version="0.91 r" xmlns:sodipodi="http://sodipodi.sourceforge.net/DTD/sodipodi-0.dtd">
 <defs id="defs8138">
  <style id="style4" type="text/css">@import url(&apos;https://fonts.googleapis.com/css?family=Fira+Mono:400,700&apos;);@import url(&apos;https://fonts.googleapis.com/css?family=Fira+Sans:400,700);</style>
 </defs>
 <sodipodi:namedview id="base" bordercolor="#666666" inkscape:pageshadow="2" inkscape:window-y="25" fit-margin-left="0" pagecolor="#ffffff" inkscape:window-height="1200" inkscape:window-maximized="0" inkscape:zoom="0.27007841" inkscape:window-x="0" showgrid="false" borderopacity="1.0" inkscape:current-layer="layer1" inkscape:cx="-250.2832" inkscape:cy="708.19284" fit-margin-top="0" fit-margin-right="0" fit-margin-bottom="0" inkscape:window-width="1920" inkscape:pageopacity="0.0" inkscape:document-units="px"/>
 <metadata id="metadata8141">
  <rdf:RDF>
   <cc:Work rdf:about="">
    <dc:format>image/svg+xml</dc:format>
    <dc:type rdf:resource="http://purl.org/dc/dcmitype/StillImage"/>
    <dc:title/>
   </cc:Work>
  </rdf:RDF>
 </metadata>
 <g id="layer1" inkscape:label="Layer 1" inkscape:groupmode="layer" transform="translate(164.85 64.387)">
  <path id="path26783" d="m2238.2 33.44-10.712 23.628-10.854-23.269 21.566-0.3587z" inkscape:transform-center-x="-11.282494" inkscape:transform-center-y="12.330378" inkscape:connector-curvature="0" stroke="#000"/>
  <path id="path26785" d="m2226.5 36.081 0.015-5.8364 0.032-12.606c1.0176-17.944-13.361-42.256 50.349-42.222l379.78 0.08762 0.551 881.05-370.48-2.391" sodipodi:nodetypes="ccccccc" inkscape:connector-curvature="0" stroke="#000" stroke-width="3" fill="none"/>
  <path id="path26735" d="m1913.9 730.39c0 6.1426-3.5612 21.579 21.189 21.526l611.85-1.3048c24.751-0.0528 19.311-15.386 19.885-21.526l-0.2443-59.702-653.13 1.3048z" sodipodi:nodetypes="csscccc" inkscape:connector-curvature="0" stroke="#000" stroke-width="1.0161px" fill="#e6e6e6"/>
  <path id="path26733" d="m-85.104 730.39c0 6.1426-3.5613 21.526 21.189 21.526h654.91c24.751 0 19.311-15.386 19.885-21.526l-0.2443-59.702h-696.19z" sodipodi:nodetypes="csscccc" inkscape:connector-curvature="0" stroke="#000" stroke-width="1.0161px" fill="#e6e6e6"/>
  <path id="path6565-2" d="m1636 98.404c-0.055-24.742-12.368-29.003-26.109-29.003h-648.35c-13.742 0-23.516 4.2609-23.5 29.003l0.17335 271.37h698.13z" sodipodi:nodetypes="csssccc" inkscape:connector-curvature="0" stroke="#000" stroke-width="1.2118px" fill="none"/>
  <path id="path8248-0" d="m1263.4 436.96 10.712 23.628 10.854-23.269-21.566-0.3587z" inkscape:transform-center-x="11.282494" inkscape:transform-center-y="12.330378" inkscape:connector-curvature="0" stroke="#000"/>
  <text id="text8250-5" style="word-spacing:0px;letter-spacing:0px" line-height="125%" xml:space="preserve" font-size="40px" y="109.15912" x="954.92468" font-family="&apos;Fira Mono&apos;" sodipodi:linespacing="125%" fill="#000000"><tspan id="tspan8252-2" sodipodi:role="line" y="109.15912" x="954.92468">PUT /resource</tspan><tspan id="tspan9156" sodipodi:role="line" y="159.15912" x="954.92468">Expect: 100-continue</tspan><tspan id="tspan21891" sodipodi:role="line" y="209.15912" x="954.92468">Content-Lenght: 9999</tspan><tspan id="tspan26671" sodipodi:role="line" y="259.15912" x="954.92468">Content-Type: json</tspan><tspan id="tspan9158" sodipodi:role="line" y="309.15912" x="954.92468">&lt;empty&gt;</tspan></text>
  <path id="path3546-7-4" d="m1315.3-22.626c0-22.524-18.266-40.761-40.761-40.761-22.524 0-40.79 18.238-40.79 40.761 0 22.524 18.266 40.761 40.79 40.761 22.495 0 40.761-18.238 40.761-40.761z" fill-rule="evenodd" inkscape:connector-curvature="0" fill="#fff"/>
  <path id="path3548-9-1" stroke-linejoin="round" d="m1315.3-22.626c0-22.524-18.266-40.761-40.761-40.761-22.524 0-40.79 18.238-40.79 40.761 0 22.524 18.266 40.761 40.79 40.761 22.495 0 40.761-18.238 40.761-40.761z" inkscape:connector-curvature="0" stroke="#000" stroke-linecap="round" stroke-miterlimit="10" stroke-width="2" fill="none"/>
  <path id="path3550-6-7" d="m1310.4-22.626c0-19.82-16.051-35.871-35.871-35.871s-35.9 16.051-35.9 35.871 16.08 35.871 35.9 35.871 35.871-16.051 35.871-35.871z" fill-rule="evenodd" inkscape:connector-curvature="0" fill="#fff"/>
  <path id="path6439-6" d="m1273.6 370.21v85.551" sodipodi:nodetypes="cc" inkscape:connector-curvature="0" stroke="#000" stroke-width="3" fill="none"/>
  <path id="path6663" d="m1264.7 44.024 10.712 23.628 10.854-23.269-21.566-0.3587z" inkscape:transform-center-x="11.282494" inkscape:transform-center-y="12.330378" inkscape:connector-curvature="0" stroke="#000"/>
  <path id="path6665" d="m1274.7 18.944v37.93" sodipodi:nodetypes="cc" inkscape:connector-curvature="0" stroke="#000" stroke-width="3" fill="none"/>
  <path id="path6667" d="m245.1 646.75 10.712 23.628 10.854-23.269-21.566-0.3587z" inkscape:transform-center-x="11.282494" inkscape:transform-center-y="12.330378" inkscape:connector-curvature="0" stroke="#000"/>
  <path id="path6797" d="m993.17 731.15c0 6.1426-3.5613 21.526 21.189 21.526h512.68c24.751 0 19.311-15.386 19.885-21.526l-0.2443-59.702h-553.96z" sodipodi:nodetypes="csscccc" inkscape:connector-curvature="0" stroke="#000" stroke-width="1.0161px" fill="#e6e6e6"/>
  <text id="text6681" style="word-spacing:0px;letter-spacing:0px" line-height="125%" xml:space="preserve" font-size="40px" y="721.05377" x="1004.5532" font-family="&apos;Fira Mono&apos;" sodipodi:linespacing="125%" fill="#000000"><tspan id="tspan6683" sodipodi:role="line" y="721.05377" x="1004.5532">100 Continue</tspan><tspan id="tspan6715" sodipodi:role="line" y="771.05377" x="1004.5532"/></text>
  <path id="path10190-3" d="m993.32 1068c0 5.1885 11.503 9.3654 25.792 9.3654h501.35c14.289 0 25.866-4.177 25.792-9.3654l0.1602-59.956-554.05-2.251z" sodipodi:nodetypes="csssccc" inkscape:connector-curvature="0" stroke="#000" stroke-width=".57235px" fill="#e6e6e6"/>
  <path id="path10192-8" d="m1547.5 818.33c-0.055-13.035-11.555-23.528-25.907-23.528h-503.59c-14.352 0-25.935 10.494-25.907 23.528l1.4944 188.91 553.78-1.1725z" sodipodi:nodetypes="csssccc" inkscape:connector-curvature="0" stroke="#000" stroke-width=".90839px" fill="none"/>
  <path id="path3881-6" d="m1258 1101 10.712 23.628 10.854-23.269-21.566-0.3588z" inkscape:transform-center-x="11.282494" inkscape:transform-center-y="12.330378" inkscape:connector-curvature="0" stroke="#000"/>
  <text id="text6557-4" style="word-spacing:0px;letter-spacing:0px" line-height="125%" sodipodi:linespacing="125%" font-size="40px" y="837.35315" x="1015.1382" font-family="&apos;Fira Mono&apos;" xml:space="preserve" fill="#000000"><tspan id="tspan6559-6" sodipodi:role="line" y="837.35315" x="1015.1382">PUT /resource</tspan><tspan id="tspan26779" sodipodi:role="line" y="887.35315" x="1015.1382">Content-Length: </tspan><tspan id="tspan26781" sodipodi:role="line" y="937.35315" x="1015.1382">Content-Type: </tspan><tspan id="tspan10030" sodipodi:role="line" y="987.35315" x="1015.1382">&lt;content&gt;</tspan></text>
  <text id="text6561-2" style="word-spacing:0px;letter-spacing:0px" line-height="125%" xml:space="preserve" font-size="40px" y="1054.7026" x="1015.1382" font-family="Sans" sodipodi:linespacing="125%" fill="#000000"><tspan id="tspan6563-9" sodipodi:role="line" y="1054.7026" x="1015.1382" font-family="&apos;Fira Mono&apos;">200 OK</tspan></text>
  <path id="path6567-5" d="m1259.4 771.18 10.712 23.628 10.854-23.269-21.566-0.3587z" inkscape:transform-center-x="11.282494" inkscape:transform-center-y="12.330378" inkscape:connector-curvature="0" stroke="#000"/>
  <path id="path6593-1" d="m1269.3 1078v31.013" inkscape:connector-curvature="0" stroke="#000" stroke-width="3" fill="none"/>
  <path id="path12228-2" d="m1269.5 752.73v31.66" inkscape:connector-curvature="0" stroke="#000" stroke-width="3" fill="none"/>
  <path id="path12220-8-7" d="m1310.3 1167c0-22.524-18.266-40.761-40.762-40.761-22.524 0-40.79 18.238-40.79 40.761 0 22.524 18.266 40.761 40.79 40.761 22.495 0 40.762-18.238 40.762-40.761z" fill-rule="evenodd" inkscape:connector-curvature="0"/>
  <path id="path12222-1-8" stroke-linejoin="round" d="m1310.3 1167c0-22.524-18.266-40.761-40.762-40.761-22.524 0-40.79 18.238-40.79 40.761 0 22.524 18.266 40.761 40.79 40.761 22.495 0 40.762-18.238 40.762-40.761z" inkscape:connector-curvature="0" stroke="#000" stroke-linecap="round" stroke-miterlimit="10" stroke-width="0.9" fill="none"/>
  <path id="path12224-2-8" d="m1305.4 1167c0-19.82-16.051-35.871-35.871-35.871s-35.9 16.051-35.9 35.871 16.08 35.871 35.9 35.871 35.871-16.051 35.871-35.871z" fill-rule="evenodd" inkscape:connector-curvature="0" fill="#fff"/>
  <path id="path12226-2-7" stroke-linejoin="round" d="m1305.4 1167c0-19.82-16.051-35.871-35.871-35.871s-35.9 16.051-35.9 35.871 16.08 35.871 35.9 35.871 35.871-16.051 35.871-35.871z" inkscape:connector-curvature="0" stroke="#000" stroke-linecap="round" stroke-miterlimit="10" stroke-width="0.9" fill="none"/>
  <path id="path11571" d="m255.08 655.96 0.0152-5.8364 0.0318-12.606c1.01-17.94-13.37-143.37 50.34-143.34l934.41 1.4677" sodipodi:nodetypes="ccccc" inkscape:connector-curvature="0" stroke="#000" stroke-width="3" fill="none"/>
  <rect id="rect6569-4-5-8" height="49.658" stroke="#000" stroke-width="3" fill="#fff" style="color:#000000" fill-rule="evenodd" rx="0" transform="rotate(45)" width="49.658" y="-574.61" x="1227.4"/>
  <path id="path6571-8-3-7" style="color:#000000" d="m1284.2 482.61-10.377 10.005-10.079-10.305-4.648 4.5676 10.036 10.261-10.332 9.9621 4.5373 4.7058 10.362-9.9906 10.065 10.29 4.6628-4.5819-10.022-10.246 10.332-9.9621-4.5373-4.7059z" fill-rule="evenodd" inkscape:connector-curvature="0" stroke="#000"/>
  <text id="text26675" style="word-spacing:0px;letter-spacing:0px" line-height="125%" xml:space="preserve" font-size="40px" y="724.12274" x="-75.07058" font-family="Sans" sodipodi:linespacing="125%" fill="#000000"><tspan id="tspan26677" sodipodi:role="line" y="724.12274" x="-75.07058" font-family="&apos;Fira Mono&apos;">413 Request Entity Too Large</tspan></text>
  <path id="path26679" d="m245.96 927.77 10.712 23.628 10.854-23.269-21.566-0.3588z" inkscape:transform-center-x="11.282494" inkscape:transform-center-y="12.330378" inkscape:connector-curvature="0" stroke="#000"/>
  <path id="path26681" d="m299.09 990.24c0-22.524-18.266-40.761-40.762-40.761-22.524 0-40.79 18.238-40.79 40.761 0 22.524 18.266 40.761 40.79 40.761 22.495 0 40.762-18.238 40.762-40.761z" fill-rule="evenodd" inkscape:connector-curvature="0"/>
  <path id="path26683" stroke-linejoin="round" d="m299.09 990.24c0-22.524-18.266-40.761-40.762-40.761-22.524 0-40.79 18.238-40.79 40.761 0 22.524 18.266 40.761 40.79 40.761 22.495 0 40.762-18.238 40.762-40.761z" inkscape:connector-curvature="0" stroke="#000" stroke-linecap="round" stroke-miterlimit="10" stroke-width="0.9" fill="none"/>
  <path id="path26685" d="m294.2 990.24c0-19.82-16.051-35.871-35.871-35.871s-35.9 16.051-35.9 35.871 16.08 35.871 35.9 35.871 35.871-16.051 35.871-35.871z" fill-rule="evenodd" inkscape:connector-curvature="0" fill="#fff"/>
  <path id="path26687" stroke-linejoin="round" d="m294.2 990.24c0-19.82-16.051-35.871-35.871-35.871s-35.9 16.051-35.9 35.871 16.08 35.871 35.9 35.871 35.871-16.051 35.871-35.871z" inkscape:connector-curvature="0" stroke="#000" stroke-linecap="round" stroke-miterlimit="10" stroke-width="0.9" fill="none"/>
  <path id="path26689" d="m257.96 905.84v29.988" inkscape:connector-curvature="0" stroke="#000" stroke-width="3" fill="none"/>
  <path id="path26691" d="m246.47 774.66 10.712 23.628 10.854-23.269-21.566-0.3587z" inkscape:transform-center-x="11.282494" inkscape:transform-center-y="12.330378" inkscape:connector-curvature="0" stroke="#000"/>
  <path id="path26693" d="m256.56 751.58v37.93" sodipodi:nodetypes="cc" inkscape:connector-curvature="0" stroke="#000" stroke-width="3" fill="none"/>
  <rect id="rect26695" height="75.252" stroke="#000" stroke-width="3" fill="#fff" style="color:#000000" fill-rule="evenodd" rx="0" transform="rotate(45)" width="75.252" y="383.39" x="748.08"/>
  <path id="path26697" style="color:#000000" d="m273.08 831.92-15.725 15.162-15.274-15.616-7.0437 6.9218 15.209 15.549-15.658 15.097 6.8758 7.1313 15.702-15.14 15.252 15.594 7.0661-6.9435-15.187-15.526 15.658-15.097-6.8759-7.1314z" fill-rule="evenodd" inkscape:connector-curvature="0" stroke="#000"/>
  <text id="text26707" style="word-spacing:0px;letter-spacing:0px" line-height="125%" sodipodi:linespacing="125%" font-size="40px" y="722.81787" x="1929.1826" font-family="Sans" xml:space="preserve" fill="#000000"><tspan id="tspan26709" sodipodi:role="line" y="722.81787" x="1929.1826" font-family="&apos;Fira Mono&apos;">415 Unsupported Media Type</tspan></text>
  <path id="path26711" d="m2220.2 927.77 10.712 23.628 10.854-23.269-21.566-0.3588z" inkscape:transform-center-x="11.282494" inkscape:transform-center-y="12.330378" inkscape:connector-curvature="0" stroke="#000"/>
  <path id="path26713" d="m2273.3 990.24c0-22.524-18.266-40.761-40.762-40.761-22.524 0-40.79 18.238-40.79 40.761 0 22.524 18.266 40.761 40.79 40.761 22.495 0 40.762-18.238 40.762-40.761z" fill-rule="evenodd" inkscape:connector-curvature="0"/>
  <path id="path26715" stroke-linejoin="round" d="m2273.3 990.24c0-22.524-18.266-40.761-40.762-40.761-22.524 0-40.79 18.238-40.79 40.761 0 22.524 18.266 40.761 40.79 40.761 22.495 0 40.762-18.238 40.762-40.761z" inkscape:connector-curvature="0" stroke="#000" stroke-linecap="round" stroke-miterlimit="10" stroke-width="0.9" fill="none"/>
  <path id="path26717" d="m2268.4 990.24c0-19.82-16.051-35.871-35.871-35.871s-35.9 16.051-35.9 35.871 16.08 35.871 35.9 35.871 35.871-16.051 35.871-35.871z" fill-rule="evenodd" inkscape:connector-curvature="0" fill="#fff"/>
  <path id="path26719" stroke-linejoin="round" d="m2268.4 990.24c0-19.82-16.051-35.871-35.871-35.871s-35.9 16.051-35.9 35.871 16.08 35.871 35.9 35.871 35.871-16.051 35.871-35.871z" inkscape:connector-curvature="0" stroke="#000" stroke-linecap="round" stroke-miterlimit="10" stroke-width="0.9" fill="none"/>
  <path id="path26721" d="m2232.2 905.84v29.988" inkscape:connector-curvature="0" stroke="#000" stroke-width="3" fill="none"/>
  <path id="path26723" d="m2220.7 774.66 10.712 23.628 10.854-23.269-21.566-0.3587z" inkscape:transform-center-x="11.282494" inkscape:transform-center-y="12.330378" inkscape:connector-curvature="0" stroke="#000"/>
  <path id="path26725" d="m2230.8 751.58v37.93" sodipodi:nodetypes="cc" inkscape:connector-curvature="0" stroke="#000" stroke-width="3" fill="none"/>
  <rect id="rect26727" height="75.252" stroke="#000" stroke-width="3" fill="#fff" style="color:#000000" fill-rule="evenodd" rx="0" transform="rotate(45)" width="75.252" y="-1012.6" x="2144.1"/>
  <path id="path26729" style="color:#000000" d="m2247.3 831.92-15.725 15.162-15.274-15.616-7.0437 6.9218 15.209 15.549-15.658 15.097 6.8758 7.1313 15.702-15.14 15.252 15.594 7.0661-6.9435-15.187-15.526 15.658-15.097-6.8759-7.1314z" fill-rule="evenodd" inkscape:connector-curvature="0" stroke="#000"/>
  <path id="path26737" d="m606.54 83.874c-0.055-24.742-12.368-29.003-26.109-29.003h-648.35c-13.742 0-23.516 4.2609-23.5 29.003l0.1733 271.37h698.13z" sodipodi:nodetypes="csssccc" inkscape:connector-curvature="0" stroke="#000" stroke-width="1.2118px" fill="none"/>
  <text id="text26739" style="word-spacing:0px;letter-spacing:0px" line-height="125%" sodipodi:linespacing="125%" font-size="40px" y="105.24455" x="-74.603836" font-family="&apos;Fira Mono&apos;" xml:space="preserve" fill="#000000"><tspan id="tspan26741" sodipodi:role="line" y="105.24455" x="-74.603836">PUT /resource</tspan><tspan id="tspan26743" sodipodi:role="line" y="155.24455" x="-74.603836">Expect: 100-continue</tspan><tspan id="tspan26745" sodipodi:role="line" y="205.24455" x="-74.603836">Content-Lenght: <tspan id="tspan26795" font-weight="bold">1000</tspan></tspan><tspan id="tspan26747" sodipodi:role="line" y="255.24455" x="-74.603836">Content-Type: json</tspan><tspan id="tspan26749" sodipodi:role="line" y="305.24457" x="-74.603836">&lt;empty&gt;</tspan></text>
  <path id="path26751" d="m2602.9 87.906c-0.055-24.742-12.368-29.003-26.109-29.003h-648.35c-13.742 0-23.516 4.2609-23.5 29.003l0.1733 271.37h698.13z" sodipodi:nodetypes="csssccc" inkscape:connector-curvature="0" stroke="#000" stroke-width="1.2118px" fill="none"/>
  <text id="text26753" style="word-spacing:0px;letter-spacing:0px" line-height="125%" sodipodi:linespacing="125%" font-size="40px" y="98.661179" x="1921.8203" font-family="&apos;Fira Mono&apos;" xml:space="preserve" fill="#000000"><tspan id="tspan26755" sodipodi:role="line" y="98.661179" x="1921.8203">PUT /resource</tspan><tspan id="tspan26757" sodipodi:role="line" y="148.66118" x="1921.8203">Expect: 100-continue</tspan><tspan id="tspan26759" sodipodi:role="line" y="198.66118" x="1921.8203">Content-Lenght: 9999</tspan><tspan id="tspan26761" sodipodi:role="line" y="248.66118" x="1921.8203">Content-Type: <tspan id="tspan26797" font-weight="bold">xml</tspan></tspan><tspan id="tspan26763" sodipodi:role="line" y="298.66119" x="1921.8203">&lt;empty&gt;</tspan></text>
  <path id="path26765" d="m2239.1 646.75-10.712 23.628-10.854-23.269 21.566-0.3587z" inkscape:transform-center-x="-11.282494" inkscape:transform-center-y="12.330378" inkscape:connector-curvature="0" stroke="#000"/>
  <path id="path26767" d="m2229.1 655.96-0.015-5.8364-0.032-12.606c-1.0175-17.944 13.361-143.38-50.348-143.35l-869.17 2.2106" sodipodi:nodetypes="ccccc" inkscape:connector-curvature="0" stroke="#000" stroke-width="3" fill="none"/>
  <path id="path26769" d="m1284 644.74-10.712 23.628-10.854-23.269 21.566-0.3587z" inkscape:transform-center-x="-11.282494" inkscape:transform-center-y="12.330378" inkscape:connector-curvature="0" stroke="#000"/>
  <path id="path26775" d="m255.6 33.44 10.712 23.628 10.854-23.269-21.566-0.3587z" inkscape:transform-center-x="11.282494" inkscape:transform-center-y="12.330378" inkscape:connector-curvature="0" stroke="#000"/>
  <path id="path26777" d="m267.37 36.081-0.015-5.8364-0.032-12.606c-1.0176-17.944 13.361-42.256-50.349-42.222l-379.78 0.08762-0.55099 881.05 370.48-2.391" sodipodi:nodetypes="ccccccc" inkscape:connector-curvature="0" stroke="#000" stroke-width="3" fill="none"/>
  <path id="path26787" d="m2234.3 358.03 0.8993 15.682c-0.949 17.083-0.9845 57.811-51.198 58.965l-843.25 0.80947-48.423 44.562" sodipodi:nodetypes="ccccc" inkscape:connector-curvature="0" stroke="#000" stroke-width="3" fill="none"/>
  <path id="path26789" d="m1300.8 454.93-9.3827 24.186 24.218-8.5289-14.835-15.657z" inkscape:transform-center-x="13.083644" inkscape:transform-center-y="-3.308462" inkscape:connector-curvature="0" stroke="#000"/>
  <path id="path26791" d="m1246.7 453.76 9.3827 24.186-24.218-8.5289 14.835-15.657z" inkscape:transform-center-x="-13.083656" inkscape:transform-center-y="-3.308462" inkscape:connector-curvature="0" stroke="#000"/>
  <path id="path26793" d="m266.58 353.98-0.8993 15.682c0.949 17.083 0.9845 57.811 51.198 58.965l886.42 2.1585 48.423 44.562" sodipodi:nodetypes="ccccc" inkscape:connector-curvature="0" stroke="#000" stroke-width="3" fill="none"/>
  <flowRoot id="flowRoot27076" style="word-spacing:0px;letter-spacing:0px" font-weight="300" xml:space="preserve" font-size="40px" transform="translate(-164.85 -64.387)" line-height="125%" font-family="&apos;Fira Sans&apos;" fill="#000000"><flowRegion id="flowRegion27078"><rect id="rect27080" y="861.68" width="1095.4" x="924.09" height="134.9"/></flowRegion><flowPara id="flowPara27082"/></flowRoot>
  <path id="path27200" d="m1272.7 529.12v129.98" sodipodi:nodetypes="cc" inkscape:connector-curvature="0" stroke="#000" stroke-width="3" fill="none"/>
 </g>
</svg>
