<?xml version="1.0" encoding="UTF-8" standalone="no"?>
<!-- Created with Inkscape (http://www.inkscape.org/) -->

<svg
   xmlns:dc="http://purl.org/dc/elements/1.1/"
   xmlns:cc="http://creativecommons.org/ns#"
   xmlns:rdf="http://www.w3.org/1999/02/22-rdf-syntax-ns#"
   xmlns:svg="http://www.w3.org/2000/svg"
   xmlns="http://www.w3.org/2000/svg"
   xmlns:sodipodi="http://sodipodi.sourceforge.net/DTD/sodipodi-0.dtd"
   xmlns:inkscape="http://www.inkscape.org/namespaces/inkscape"
   width="639.61743"
   height="951.67084"
   id="svg7590"
   version="1.1"
   inkscape:version="0.48.4 r9939"
   sodipodi:docname="postPut3.svg">
  <defs
     id="defs7592" >
     <style type="text/css">@import url('https://fonts.googleapis.com/css?family=Fira+Mono:400,700');@import url('https://fonts.googleapis.com/css?family=Fira+Sans:400,700);</style>
  </defs>
  <sodipodi:namedview
     id="base"
     pagecolor="#ffffff"
     bordercolor="#666666"
     borderopacity="1.0"
     inkscape:pageopacity="0.0"
     inkscape:pageshadow="2"
     inkscape:zoom="0.4705285"
     inkscape:cx="94.549882"
     inkscape:cy="465.99721"
     inkscape:document-units="px"
     inkscape:current-layer="layer1"
     showgrid="false"
     fit-margin-top="0"
     fit-margin-left="0"
     fit-margin-right="0"
     fit-margin-bottom="0"
     inkscape:window-width="1440"
     inkscape:window-height="895"
     inkscape:window-x="88"
     inkscape:window-y="23"
     inkscape:window-maximized="0" />
  <metadata
     id="metadata7595">
    <rdf:RDF>
      <cc:Work
         rdf:about="">
        <dc:format>image/svg+xml</dc:format>
        <dc:type
           rdf:resource="http://purl.org/dc/dcmitype/StillImage" />
        <dc:title></dc:title>
      </cc:Work>
    </rdf:RDF>
  </metadata>
  <g
     inkscape:label="Layer 1"
     inkscape:groupmode="layer"
     id="layer1"
     transform="translate(823.04184,117.23625)">
    <path
       id="path11873-3"
       style="fill:#000000;fill-opacity:1;fill-rule:evenodd;stroke:none"
       d="m -503.61545,793.22316 c 0,-22.52371 -18.2664,-40.76131 -40.7615,-40.76131 -22.5235,0 -40.7899,18.2376 -40.7899,40.76131 0,22.5238 18.2662,40.76144 40.7899,40.76144 22.4949,0 40.7615,-18.23764 40.7615,-40.76144 z"
       inkscape:connector-curvature="0" />
    <path
       id="path11875-8"
       style="fill:none;stroke:#000000;stroke-width:0.89999998;stroke-linecap:round;stroke-linejoin:round;stroke-miterlimit:10;stroke-opacity:1;stroke-dasharray:none"
       d="m -503.61545,793.22316 c 0,-22.52371 -18.2664,-40.76131 -40.7615,-40.76131 -22.5235,0 -40.7899,18.2376 -40.7899,40.76131 0,22.5238 18.2662,40.76144 40.7899,40.76144 22.4949,0 40.7615,-18.23764 40.7615,-40.76144 z"
       inkscape:connector-curvature="0" />
    <path
       id="path11877-6"
       style="fill:#ffffff;fill-opacity:1;fill-rule:evenodd;stroke:none"
       d="m -508.50565,793.22316 c 0,-19.81971 -16.0514,-35.87111 -35.8713,-35.87111 -19.8195,0 -35.8997,16.0514 -35.8997,35.87111 0,19.8198 16.0802,35.87124 35.8997,35.87124 19.8199,0 35.8713,-16.05144 35.8713,-35.87124 z"
       inkscape:connector-curvature="0" />
    <path
       id="path11879-9"
       style="fill:none;stroke:#000000;stroke-width:0.89999998;stroke-linecap:round;stroke-linejoin:round;stroke-miterlimit:10;stroke-opacity:1;stroke-dasharray:none"
       d="m -508.50565,793.22316 c 0,-19.81971 -16.0514,-35.87111 -35.8713,-35.87111 -19.8195,0 -35.8997,16.0514 -35.8997,35.87111 0,19.8198 16.0802,35.87124 35.8997,35.87124 19.8199,0 35.8713,-16.05144 35.8713,-35.87124 z"
       inkscape:connector-curvature="0" />
    <path
       inkscape:connector-curvature="0"
       id="path11999-3"
       d="m -822.32711,422.24853 c 0,12.10273 20.0159,21.84608 44.87891,21.84608 l 466.49821,0 c 24.86281,0 44.303,-9.74664 44.87892,-21.84608 l 1.06538,-138.19901 -556.46584,0 z"
       style="fill:#e6e6e6;stroke:#000000;stroke-width:1.42945218px;stroke-linecap:butt;stroke-linejoin:miter;stroke-opacity:1"
       sodipodi:nodetypes="csscccc" />
    <path
       inkscape:transform-center-y="12.330378"
       inkscape:transform-center-x="11.282494"
       id="path12009-5"
       style="fill:#000000;stroke:#000000;stroke-width:1"
       d="m -551.30674,138.52459 10.7124,23.6275 10.854,-23.2688 -21.5664,-0.3587 z"
       inkscape:connector-curvature="0" />
    <text
       xml:space="preserve"
       style="font-size:40px;font-style:normal;font-weight:normal;line-height:125%;letter-spacing:0px;word-spacing:0px;fill:#000000;fill-opacity:1;stroke:none;font-family:Sans"
       x="-781.45734"
       y="210.61336"
       id="text12011-9"
       sodipodi:linespacing="125%"><tspan
         sodipodi:role="line"
         id="tspan12013-1"
         x="-781.45734"
         y="210.61336"
         style="font-style:normal;font-variant:normal;font-weight:normal;font-stretch:normal;font-family:Fira Mono;-inkscape-font-specification:Fira Mono">POST /resource</tspan><tspan
         sodipodi:role="line"
         x="-781.45734"
         y="260.61334"
         style="font-style:normal;font-variant:normal;font-weight:normal;font-stretch:normal;font-family:Fira Mono;-inkscape-font-specification:Fira Mono"
         id="tspan12158-9">&lt;empty&gt;</tspan></text>
    <rect
       rx="0"
       transform="matrix(0.70710678,0.70710678,-0.70710678,0.70710678,0,0)"
       y="390.31021"
       x="-374.70709"
       height="75.252434"
       width="75.252434"
       id="rect12015-8"
       style="color:#000000;fill:#ffffff;fill-opacity:1;fill-rule:evenodd;stroke:#000000;stroke-width:3;stroke-linecap:butt;stroke-linejoin:miter;stroke-miterlimit:4;stroke-opacity:1;stroke-dasharray:none;stroke-dashoffset:0;marker:none;visibility:visible;display:inline;overflow:visible;enable-background:accumulate" />
    <path
       id="path12017-7"
       d="m -525.75668,42.875826 -15.725,15.1616 -15.274,-15.6164 -7.0437,6.9218 15.2091,15.549 -15.6575,15.096601 6.8758,7.1313 15.7025,-15.1399 15.2524,15.594 7.0661,-6.9435 -15.1873,-15.526501 15.6575,-15.0966 -6.8759,-7.1314 z"
       style="color:#000000;fill:#000000;fill-opacity:1;fill-rule:evenodd;stroke:#000000;stroke-width:1;stroke-linecap:butt;stroke-linejoin:miter;stroke-miterlimit:4;stroke-opacity:1;stroke-dashoffset:0;marker:none;visibility:visible;display:inline;overflow:visible;enable-background:accumulate"
       inkscape:connector-curvature="0" />
    <path
       inkscape:connector-curvature="0"
       d="m -551.34338,-9.9596738 10.7124,23.6274998 10.854,-23.2687998 -21.5664,-0.3587 z"
       style="fill:#000000;stroke:#000000;stroke-width:1"
       id="path12019-9"
       inkscape:transform-center-x="11.282494"
       inkscape:transform-center-y="12.330378" />
    <path
       inkscape:connector-curvature="0"
       id="path12021-1"
       d="m -541.38908,116.96319 0,24.79666"
       style="fill:none;stroke:#000000;stroke-width:3;stroke-linecap:butt;stroke-linejoin:miter;stroke-miterlimit:4;stroke-opacity:1;stroke-dasharray:none" />
    <path
       inkscape:connector-curvature="0"
       id="path12023-6"
       d="m -541.25328,-32.696055 0,35.8968687"
       style="fill:none;stroke:#000000;stroke-width:3;stroke-linecap:butt;stroke-linejoin:miter;stroke-miterlimit:4;stroke-opacity:1;stroke-dasharray:none" />
    <path
       style="fill:none;stroke:#000000;stroke-width:3;stroke-linecap:butt;stroke-linejoin:miter;stroke-miterlimit:4;stroke-opacity:1;stroke-dasharray:none"
       d="m -230.80505,223.9497 6.40559,0.008 23.9378,0.16104 c 15.29874,-0.20363 15.08014,-0.45484 15.07349,-18.861 l 0.46377,-126.003533 c -0.20209,-16.404256 -0.19706,-16.608782 -12.85014,-16.578038 l -278.8731,1.404767"
       id="path12025-8"
       inkscape:connector-curvature="0"
       sodipodi:nodetypes="ccccccc" />
    <path
       inkscape:connector-curvature="0"
       id="path12027-9"
       d="m -266.61922,188.18643 c -0.082,-14.58513 -8.43221,-26.32773 -18.90616,-26.32773 l -517.04157,0 c -10.47398,0 -18.92672,11.74211 -18.90617,26.32773 l 0.13213,93.8215 554.98605,0 z"
       style="fill:none;stroke:#000000;stroke-width:1.01823103;stroke-linecap:butt;stroke-linejoin:miter;stroke-miterlimit:4;stroke-opacity:1;stroke-dasharray:none" />
    <text
       sodipodi:linespacing="125%"
       id="text12045-7"
       y="348.63806"
       x="-785.76056"
       style="font-size:40px;font-style:normal;font-weight:normal;line-height:125%;letter-spacing:0px;word-spacing:0px;fill:#000000;fill-opacity:1;stroke:none;font-family:Sans"
       xml:space="preserve"><tspan
         style="font-style:normal;font-variant:normal;font-weight:normal;font-stretch:normal;font-family:Fira Mono;-inkscape-font-specification:Fira Mono"
         y="348.63806"
         x="-785.76056"
         sodipodi:role="line"
         id="tspan12047-3">201 Created</tspan><tspan
         style="font-style:normal;font-variant:normal;font-weight:normal;font-stretch:normal;font-family:Fira Mono;-inkscape-font-specification:Fira Mono"
         y="398.63806"
         x="-785.76056"
         sodipodi:role="line"
         id="tspan12119-0">Location: /resource/X</tspan><tspan
         id="tspan12049-4"
         style="font-style:normal;font-variant:normal;font-weight:normal;font-stretch:normal;font-family:Fira Mono;-inkscape-font-specification:Fira Mono"
         y="448.63806"
         x="-785.76056"
         sodipodi:role="line" /></text>
    <rect
       style="fill:none;stroke:#000000;stroke-width:2.06015396;stroke-linecap:round;stroke-miterlimit:4;stroke-opacity:0.97254902;stroke-dasharray:2.06015404, 6.18046204;stroke-dashoffset:0"
       id="rect12059-9"
       width="310.1048"
       height="63.269138"
       x="-723.33759"
       y="506.51672" />
    <path
       inkscape:connector-curvature="0"
       d="m -391.10257,555.6571 -23.02157,-11.9592 23.81534,-9.5956 -0.79377,21.5548 z"
       style="fill:#ffffff;stroke:#000000;stroke-width:1;stroke-miterlimit:4;stroke-dasharray:none;stroke-dashoffset:0"
       id="path12061-6"
       inkscape:transform-center-x="12.808414"
       inkscape:transform-center-y="11.229213" />
    <path
       inkscape:transform-center-y="11.273068"
       inkscape:transform-center-x="12.535204"
       id="path12063-8"
       style="fill:#000000;stroke:#000000;stroke-width:1"
       d="m -466.10774,74.309647 -23.49379,-11.002551 23.4007,-10.56663 0.0931,21.569181 z"
       inkscape:connector-curvature="0" />
    <path
       id="path12065-2"
       style="fill:#ffffff;fill-opacity:1;fill-rule:evenodd;stroke:none"
       d="m -231.60002,227.04464 c 0,-21.61235 -17.54948,-39.16215 -39.16218,-39.16215 -21.64,0 -39.1897,17.5498 -39.1897,39.16215 0,21.64 17.5497,39.1898 39.1897,39.1898 21.6125,0 39.16218,-17.5498 39.16218,-39.1898 z"
       inkscape:connector-curvature="0" />
    <path
       id="path12067-5"
       style="fill:none;stroke:#000000;stroke-width:2;stroke-linecap:round;stroke-linejoin:round;stroke-miterlimit:10;stroke-opacity:1;stroke-dasharray:none"
       d="m -231.60002,227.04464 c 0,-21.61235 -17.54948,-39.16215 -39.16218,-39.16215 -21.64,0 -39.1897,17.5498 -39.1897,39.16215 0,21.64 17.5497,39.1898 39.1897,39.1898 21.6125,0 39.16218,-17.5498 39.16218,-39.1898 z"
       inkscape:connector-curvature="0" />
    <path
       id="path12069-2"
       style="fill:#ffffff;fill-opacity:1;fill-rule:evenodd;stroke:none"
       d="m -236.29812,227.04464 c 0,-19.01445 -15.42168,-34.46375 -34.46378,-34.46375 -19.0422,0 -34.4915,15.4493 -34.4915,34.46375 0,19.0421 15.4493,34.4914 34.4915,34.4914 19.0421,0 34.46378,-15.4493 34.46378,-34.4914 z"
       inkscape:connector-curvature="0" />
    <path
       id="path12071-9"
       style="fill:none;stroke:#000000;stroke-width:2;stroke-linecap:round;stroke-linejoin:round;stroke-miterlimit:10;stroke-opacity:1;stroke-dasharray:none"
       d="m -236.29812,227.04464 c 0,-19.01445 -15.42168,-34.46375 -34.46378,-34.46375 -19.0422,0 -34.4915,15.4493 -34.4915,34.46375 0,19.0421 15.4493,34.4914 34.4915,34.4914 19.0421,0 34.46378,-15.4493 34.46378,-34.4914 z"
       inkscape:connector-curvature="0" />
    <path
       id="path12073-2"
       style="fill:#ffffff;fill-opacity:1;fill-rule:evenodd;stroke:none"
       d="m -242.57182,227.04464 c 0,-15.55975 -12.63028,-28.19005 -28.19008,-28.19005 -15.5875,0 -28.218,12.6303 -28.218,28.19005 0,15.5875 12.6305,28.2177 28.218,28.2177 15.5598,0 28.19008,-12.6302 28.19008,-28.2177 z"
       inkscape:connector-curvature="0" />
    <path
       id="path12075-7"
       style="fill:none;stroke:#000000;stroke-width:0.90000004;stroke-linecap:round;stroke-linejoin:round;stroke-miterlimit:10;stroke-opacity:1;stroke-dasharray:none"
       d="m -242.57182,227.04464 c 0,-15.55975 -12.63028,-28.19005 -28.19008,-28.19005 -15.5875,0 -28.218,12.6303 -28.218,28.19005 0,15.5875 12.6305,28.2177 28.218,28.2177 15.5598,0 28.19008,-12.6302 28.19008,-28.2177 z"
       inkscape:connector-curvature="0" />
    <path
       id="path12077-4"
       style="fill:none;stroke:#000000;stroke-width:0.90000004;stroke-linecap:round;stroke-linejoin:round;stroke-miterlimit:10;stroke-opacity:1;stroke-dasharray:none"
       d="m -270.7619,227.04464 14.095,0"
       inkscape:connector-curvature="0" />
    <path
       id="path12079-3"
       style="fill:none;stroke:#000000;stroke-width:0.90000004;stroke-linecap:round;stroke-linejoin:round;stroke-miterlimit:10;stroke-opacity:1;stroke-dasharray:none"
       d="m -271.5634,198.85459 0,2.3492"
       inkscape:connector-curvature="0" />
    <path
       id="path12083-1"
       style="fill:none;stroke:#000000;stroke-width:0.90000004;stroke-linecap:round;stroke-linejoin:round;stroke-miterlimit:10;stroke-opacity:1;stroke-dasharray:none"
       d="m -245.6948,226.27074 2.07278,0"
       inkscape:connector-curvature="0" />
    <path
       id="path12085-0"
       style="fill:none;stroke:#000000;stroke-width:0.90000004;stroke-linecap:round;stroke-linejoin:round;stroke-miterlimit:10;stroke-opacity:1;stroke-dasharray:none"
       d="m -298.9799,226.27074 3.9524,-0.2763"
       inkscape:connector-curvature="0" />
    <path
       id="path12087-8"
       style="fill:none;stroke:#000000;stroke-width:0.90000004;stroke-linecap:round;stroke-linejoin:round;stroke-miterlimit:10;stroke-opacity:1;stroke-dasharray:none"
       d="m -285.5203,203.00019 28.0796,46.76235"
       inkscape:connector-curvature="0" />
    <path
       id="path12089-7"
       style="fill:none;stroke:#000000;stroke-width:0.90000004;stroke-linecap:round;stroke-linejoin:round;stroke-miterlimit:10;stroke-opacity:1;stroke-dasharray:none"
       d="m -295.0552,212.94959 47.0112,27.41625"
       inkscape:connector-curvature="0" />
    <path
       id="path12091-4"
       style="fill:none;stroke:#000000;stroke-width:0.90000004;stroke-linecap:round;stroke-linejoin:round;stroke-miterlimit:10;stroke-opacity:1;stroke-dasharray:none"
       d="m -257.4407,202.77909 -28.2178,46.98345"
       inkscape:connector-curvature="0" />
    <path
       id="path12093-6"
       style="fill:none;stroke:#000000;stroke-width:0.90000004;stroke-linecap:round;stroke-linejoin:round;stroke-miterlimit:10;stroke-opacity:1;stroke-dasharray:none"
       d="m -248.044,212.94959 -47.0112,26.64245"
       inkscape:connector-curvature="0" />
    <path
       id="path12095-6"
       style="fill:none;stroke:#000000;stroke-width:0.90000004;stroke-linecap:round;stroke-linejoin:round;stroke-miterlimit:10;stroke-opacity:1;stroke-dasharray:none"
       d="m -271.5634,226.27074 7.849,-20.36865"
       inkscape:connector-curvature="0" />
    <path
       id="path12097-3"
       style="fill:#ffffff;fill-opacity:1;fill-rule:evenodd;stroke:none"
       d="m -246.4963,227.04464 c 0,-13.4041 -10.8615,-24.26555 -24.2656,-24.26555 -13.4318,0 -24.2933,10.86145 -24.2933,24.26555 0,13.4317 10.8615,24.2932 24.2933,24.2932 13.4041,0 24.2656,-10.8615 24.2656,-24.2932 z"
       inkscape:connector-curvature="0" />
    <path
       id="path12099-0"
       style="fill:none;stroke:#000000;stroke-width:0.90000004;stroke-linecap:round;stroke-linejoin:round;stroke-miterlimit:10;stroke-opacity:1;stroke-dasharray:none"
       d="m -266.9758,202.77909 -4.1731,24.15495 17.2734,0.1106"
       inkscape:connector-curvature="0" />
    <path
       inkscape:connector-curvature="0"
       d="m -244.50442,228.56934 2.1004,0"
       style="fill:none;stroke:#000000;stroke-width:0.90000004;stroke-linecap:round;stroke-linejoin:round;stroke-miterlimit:10;stroke-opacity:1;stroke-dasharray:none"
       id="path12101-2" />
    <path
       sodipodi:nodetypes="csssccc"
       inkscape:connector-curvature="0"
       id="path12121-3"
       d="m -821.536,701.48195 c 0,4.84886 7.41317,8.75236 16.62155,8.75236 l 519.89466,0 c 9.20832,0 16.65883,-3.90357 16.62157,-8.75236 l -0.53873,-70.11127 -553.21545,-0.002 z"
       style="fill:#e6e6e6;stroke:#000000;stroke-width:0.55063033px;stroke-linecap:butt;stroke-linejoin:miter;stroke-opacity:1" />
    <path
       inkscape:transform-center-y="12.330378"
       inkscape:transform-center-x="11.282494"
       id="path12123-9"
       style="fill:#000000;stroke:#000000;stroke-width:1"
       d="m -555.54076,467.03754 10.7124,23.6275 10.854,-23.2688 -21.5664,-0.3587 z"
       inkscape:connector-curvature="0" />
    <text
       sodipodi:linespacing="125%"
       id="text12125-0"
       y="553.35181"
       x="-804.57983"
       style="font-size:40px;font-style:normal;font-weight:normal;line-height:125%;letter-spacing:0px;word-spacing:0px;fill:#000000;fill-opacity:1;stroke:none;font-family:Sans"
       xml:space="preserve"><tspan
         style="font-style:normal;font-variant:normal;font-weight:normal;font-stretch:normal;font-family:Fira Mono;-inkscape-font-specification:Fira Mono"
         y="553.35181"
         x="-804.57983"
         id="tspan12127-5"
         sodipodi:role="line">PUT /resource/X</tspan><tspan
         style="font-style:normal;font-variant:normal;font-weight:normal;font-stretch:normal;font-family:Fira Mono;-inkscape-font-specification:Fira Mono"
         y="603.35181"
         x="-804.57983"
         sodipodi:role="line"
         id="tspan12160-2">&lt;content&gt;</tspan></text>
    <text
       xml:space="preserve"
       style="font-size:40px;font-style:normal;font-weight:normal;line-height:125%;letter-spacing:0px;word-spacing:0px;fill:#000000;fill-opacity:1;stroke:none;font-family:Sans"
       x="-805.80981"
       y="682.35858"
       id="text12129-2"
       sodipodi:linespacing="125%"><tspan
         id="tspan12135-0"
         sodipodi:role="line"
         x="-805.80981"
         y="682.35858"
         style="font-style:normal;font-variant:normal;font-weight:normal;font-stretch:normal;font-family:Fira Mono;-inkscape-font-specification:Fira Mono">200 OK</tspan></text>
    <rect
       style="fill:none;stroke:#000000;stroke-width:2;stroke-linecap:round;stroke-miterlimit:4;stroke-opacity:0.97254902;stroke-dasharray:2, 6;stroke-dashoffset:0"
       id="rect12137-0"
       width="285.2728"
       height="59.265694"
       x="-563.07489"
       y="358.05951" />
    <path
       inkscape:connector-curvature="0"
       id="path12139-9"
       d="m -544.56656,445.41299 0,22.45438"
       style="fill:none;stroke:#000000;stroke-width:3;stroke-linecap:butt;stroke-linejoin:miter;stroke-miterlimit:4;stroke-opacity:1;stroke-dasharray:none" />
    <path
       inkscape:connector-curvature="0"
       id="path12141-1"
       d="m -269.76683,522.40345 c -0.0362,-16.54778 -7.4054,-29.86975 -16.60392,-29.86975 l -519.34212,0 c -9.19852,0 -16.62195,13.32187 -16.60391,29.86975 l 0.11605,106.44373 552.66599,0 z"
       style="fill:none;stroke:#000000;stroke-width:1.0166738px;stroke-linecap:butt;stroke-linejoin:miter;stroke-opacity:1" />
    <path
       inkscape:connector-curvature="0"
       d="m -555.24355,729.08945 10.7124,23.6275 10.854,-23.2688 -21.5664,-0.3587 z"
       style="fill:#000000;stroke:#000000;stroke-width:1"
       id="path12143-8"
       inkscape:transform-center-x="11.282494"
       inkscape:transform-center-y="12.330378" />
    <path
       inkscape:connector-curvature="0"
       id="path12145-3"
       d="m -545.15345,710.20024 0,39.95199"
       style="fill:none;stroke:#000000;stroke-width:3;stroke-linecap:butt;stroke-linejoin:miter;stroke-miterlimit:4;stroke-opacity:1;stroke-dasharray:none" />
    <path
       inkscape:connector-curvature="0"
       d="m -500.47467,-75.474864 c 0,-22.523756 -18.2661,-40.761386 -40.7614,-40.761386 -22.5237,0 -40.7902,18.23763 -40.7902,40.761386 0,22.52376 18.2665,40.76135 40.7902,40.76135 22.495,0 40.7614,-18.23759 40.7614,-40.76135 z"
       style="fill:#ffffff;fill-opacity:1;fill-rule:evenodd;stroke:none"
       id="path12152-4" />
    <path
       inkscape:connector-curvature="0"
       d="m -500.47467,-75.474864 c 0,-22.523756 -18.2661,-40.761386 -40.7614,-40.761386 -22.5237,0 -40.7902,18.23763 -40.7902,40.761386 0,22.52376 18.2665,40.76135 40.7902,40.76135 22.495,0 40.7614,-18.23759 40.7614,-40.76135 z"
       style="fill:none;stroke:#000000;stroke-width:2;stroke-linecap:round;stroke-linejoin:round;stroke-miterlimit:10;stroke-opacity:1;stroke-dasharray:none"
       id="path12154-4" />
    <path
       inkscape:connector-curvature="0"
       d="m -505.36467,-75.474864 c 0,-19.819746 -16.0514,-35.871176 -35.8711,-35.871176 -19.8198,0 -35.9,16.05143 -35.9,35.871176 0,19.81976 16.0802,35.87115 35.9,35.87115 19.8197,0 35.8711,-16.05139 35.8711,-35.87115 z"
       style="fill:#ffffff;fill-opacity:1;fill-rule:evenodd;stroke:none"
       id="path12156-0" />
    <path
       style="fill:none;stroke:#000000;stroke-width:2;stroke-linecap:butt;stroke-linejoin:miter;stroke-miterlimit:4;stroke-opacity:1;stroke-dasharray:2, 4;stroke-dashoffset:0"
       d="m -363.61855,416.03185 -0.12042,128.67021 -28.2953,-0.35645"
       id="path6723-2"
       inkscape:connector-curvature="0" />
  </g>
</svg>
